<?xml version="1.0" encoding="utf-8"?>
<!-- Generator: Adobe Illustrator 22.1.0, SVG Export Plug-In . SVG Version: 6.00 Build 0)  -->
<svg version="1.1" id="Ebene_1" xmlns="http://www.w3.org/2000/svg" xmlns:xlink="http://www.w3.org/1999/xlink" x="0px" y="0px"
	 viewBox="0 0 234 50" style="enable-background:new 0 0 234 50;" xml:space="preserve">
<style type="text/css">
	.st0{fill:#010202;}
</style>
<g>
	<path class="st0" d="M70,49.8V30.8h-2.9v13.4l-8.7-13.4h-2.6v19.1h2.9V36.4l8.7,13.4H70z M50.2,49.8V30.8h-2.9v13.4l-8.7-13.4H36
		v19.1h2.9V36.4l8.7,13.4H50.2z M28.2,40.3c0,3.8-0.2,4.9-1.1,5.9c-0.7,0.7-1.7,1.2-2.8,1.2c-1.1,0-2.1-0.5-2.8-1.2
		c-0.9-1-1.1-2.1-1.1-5.9s0.2-4.9,1.1-5.9c0.7-0.7,1.7-1.2,2.8-1.2c1.1,0,2.1,0.5,2.8,1.2C28.1,35.4,28.2,36.5,28.2,40.3 M31.1,40.3
		c0-3.7,0.1-5.8-1.8-7.7c-1.3-1.3-3-2-5-2c-2,0-3.7,0.7-5,2c-1.9,1.9-1.8,4-1.8,7.7s0,5.8,1.8,7.7c1.3,1.3,2.9,2,5,2s3.7-0.7,5-2
		C31.2,46.1,31.1,44,31.1,40.3 M10.5,44.3c0,1.7-1.1,2.9-3.1,2.9H2.9v-5.8h4.5C9.4,41.4,10.5,42.6,10.5,44.3 M10.2,36.1
		c0,1.8-1.2,2.7-3.1,2.7H2.9v-5.5h4.2C8.9,33.4,10.2,34.3,10.2,36.1 M13.3,44.5c0-2.4-1.4-3.8-2.8-4.4c1.3-0.5,2.5-2,2.5-4
		c0-3.2-2.2-5.2-5.7-5.2H0v19.1h7.6C11,49.8,13.3,48,13.3,44.5"/>
	<path class="st0" d="M234,13.8c0-1.6-0.5-3-1.5-3.9c-0.8-0.7-1.8-1.2-3.5-1.4l-2.1-0.3c-0.9-0.1-1.6-0.5-2.1-0.9
		c-0.5-0.5-0.7-1.1-0.7-1.8c0-1.7,1.2-3,3.4-3c1.6,0,2.9,0.3,4.1,1.5l1.8-1.8C231.7,0.6,230,0,227.5,0c-3.9,0-6.3,2.3-6.3,5.6
		c0,1.6,0.5,2.8,1.4,3.6c0.8,0.8,2,1.3,3.6,1.5l2.2,0.3c1.1,0.2,1.6,0.3,2.1,0.8c0.5,0.5,0.7,1.2,0.7,2c0,1.8-1.4,2.9-3.9,2.9
		c-1.9,0-3.4-0.4-4.8-1.8l-1.9,1.9c1.8,1.8,3.8,2.5,6.7,2.5C231.2,19.4,234,17.3,234,13.8 M216.9,12.8V0.2h-2.9v12.5
		c0,2.5-1.6,4.1-3.9,4.1c-2.4,0-3.9-1.6-3.9-4.1V0.2h-2.9v12.6c0,3.9,2.9,6.6,6.8,6.6C214,19.4,216.9,16.7,216.9,12.8 M195.2,12.9
		h-5.8l2.9-8.5L195.2,12.9z M200.3,19.2l-6.9-19.1h-2.3l-6.9,19.1h3l1.3-3.8h7.4l1.3,3.8H200.3z M180.9,19.2V0.2H178v8.1h-7.7V0.2
		h-2.9v19.1h2.9v-8.3h7.7v8.3H180.9z M162.6,10.5h-7.7v2.5h7.7V10.5z M149.9,19.2V0.2h-2.9v13.4l-8.7-13.4h-2.6v19.1h2.9V5.8
		l8.7,13.4C147.3,19.2,149.9,19.2,149.9,19.2z M131.1,19.2v-2.6H122v-5.7h7.8V8.3H122V2.8h9.2V0.2h-12.1v19.1H131.1z M115.8,0.2h-3
		L108.5,14l-4.3-13.9h-3l6.2,19.1h2.2L115.8,0.2z M96,9.7c0,3.8-0.2,4.9-1.1,5.9c-0.7,0.7-1.7,1.2-2.8,1.2c-1.1,0-2.1-0.5-2.8-1.2
		c-0.9-1-1.1-2.1-1.1-5.9s0.2-4.9,1.1-5.9c0.7-0.7,1.7-1.2,2.8-1.2c1.1,0,2.1,0.5,2.8,1.2C95.8,4.8,96,5.9,96,9.7 M98.9,9.7
		c0-3.7,0.1-5.8-1.8-7.7c-1.3-1.3-3-2-5-2c-2,0-3.7,0.7-5,2c-1.9,1.9-1.8,4-1.8,7.7s0,5.8,1.8,7.7c1.3,1.3,2.9,2,5,2
		c2,0,3.7-0.7,5-2C98.9,15.5,98.9,13.4,98.9,9.7 M80.4,19.2V0.2h-2.9v8.1h-7.7V0.2H67v19.1h2.9v-8.3h7.7v8.3H80.4z M63.1,2.8V0.2
		H49.8v2.6H55v16.5h2.9V2.8H63.1z M46.9,19.2v-2.6h-9.2v-5.7h7.8V8.3h-7.8V2.8h9.2V0.2H34.9v19.1H46.9z M30.3,19.2v-2.6h-9.2v-5.7
		h7.8V8.3h-7.8V2.8h9.2V0.2H18.2v19.1H30.3z M10.5,13.7c0,1.7-1.1,2.9-3.1,2.9H2.9v-5.8h4.5C9.4,10.8,10.5,12,10.5,13.7 M10.2,5.5
		c0,1.8-1.2,2.7-3.1,2.7H2.9V2.8h4.2C8.9,2.8,10.2,3.7,10.2,5.5 M13.3,13.8c0-2.4-1.4-3.8-2.8-4.4c1.3-0.5,2.5-2,2.5-4
		c0-3.2-2.2-5.2-5.7-5.2H0v19.1h7.6C11,19.2,13.3,17.4,13.3,13.8"/>
</g>
</svg>
