<?xml version="1.0" encoding="utf-8"?>
<!-- Generator: Adobe Illustrator 22.1.0, SVG Export Plug-In . SVG Version: 6.00 Build 0)  -->
<svg version="1.1" id="Ebene_1" xmlns="http://www.w3.org/2000/svg" xmlns:xlink="http://www.w3.org/1999/xlink" x="0px" y="0px"
	 viewBox="0 0 136 50" style="enable-background:new 0 0 136 50;" xml:space="preserve">
<style type="text/css">
	.st0{fill:#F9B00D;}
	.st1{fill:#010202;}
</style>
<g>
	<g>
		<g>
			<path class="st0" d="M111.2,36.9c0-1.1-0.7-1.5-1.4-1.5c-0.9,0-1.5,0.5-1.5,2H102c0-4.4,3-6.2,8-6.2c6.1,0,8.1,2.7,8.1,5.5
				c0,2.8-1.7,5-7.1,8.1v0h7.1v4.6h-15.9v-4.6l4-2.6C110,39.9,111.2,38.1,111.2,36.9"/>
		</g>
	</g>
	<g>
		<g>
			<path class="st0" d="M93.9,40.6c0,4.6-0.6,5-1.5,5c-1,0-1.5-0.4-1.5-5c0-4.6,0.6-5,1.5-5C93.4,35.6,93.9,36,93.9,40.6
				 M100.6,40.6c0-5.6-2.6-9.4-8.2-9.4s-8.2,3.7-8.2,9.4s2.6,9.4,8.2,9.4C98.1,50,100.6,46.3,100.6,40.6"/>
		</g>
	</g>
	<g>
		<g>
			<path class="st0" d="M75.9,36.9c0-1.1-0.7-1.5-1.4-1.5c-0.9,0-1.5,0.5-1.5,2h-6.3c0-4.4,3-6.2,8-6.2c6.1,0,8.1,2.7,8.1,5.5
				c0,2.8-1.7,5-7.1,8.1v0h7.1v4.6H66.8v-4.6l4-2.6C74.7,39.9,75.9,38.1,75.9,36.9"/>
		</g>
	</g>
	<g>
		<g>
			<path class="st1" d="M14.9,17.7c0,1.9-1,2.7-3.6,2.7H9.8v-5.1h1.4C13.7,15.4,14.9,16.2,14.9,17.7 M14.4,7.9
				c0,1.5-0.8,2.6-3.2,2.6H9.8V5.6h1.4C13.3,5.6,14.4,6.2,14.4,7.9 M24.3,6.7c0-4.4-2.8-6.7-8.5-6.7H0v26h14.8
				c6.6,0,10.2-3,10.2-7.5c0-2.8-1.6-5.6-5.7-6.1v-0.1C23.2,11.5,24.3,9.3,24.3,6.7"/>
		</g>
	</g>
	<g>
		<g>
			<polygon class="st1" points="49.7,7 43.2,7 43.2,26 32.6,26 32.6,7 26.1,7 26.1,0 49.7,0 			"/>
		</g>
	</g>
	<g>
		<g>
			<polygon class="st1" points="77.1,26 66.6,26 66.6,16.4 62.1,16.4 62.1,26 51.6,26 51.6,0 62.1,0 62.1,8.8 66.6,8.8 66.6,0 
				77.1,0 			"/>
		</g>
	</g>
	<g>
		<g>
			<polygon class="st1" points="107.3,0 99.8,26 86.3,26 78.8,0 89.5,0 93,20.3 93.1,20.3 96.6,0 			"/>
		</g>
	</g>
	<g>
		<g>
			<polygon class="st1" points="135.9,26 123.3,26 117.6,10.2 117.6,10.2 117.6,26 109,26 109,0 121.6,0 127.3,15.8 127.3,15.8 
				127.3,0 135.9,0 			"/>
		</g>
	</g>
	<g>
		<g>
			<path class="st0" d="M129.3,40.6c0,4.6-0.6,5-1.5,5c-1,0-1.5-0.4-1.5-5c0-4.6,0.6-5,1.5-5C128.7,35.6,129.3,36,129.3,40.6
				 M136,40.6c0-5.6-2.6-9.4-8.2-9.4s-8.2,3.7-8.2,9.4s2.6,9.4,8.2,9.4S136,46.3,136,40.6"/>
		</g>
	</g>
</g>
<g>
	<g>
		<path class="st0" d="M1265,80.1c0-1.1-0.7-1.5-1.4-1.5c-0.9,0-1.5,0.5-1.5,2h-6.3c0-4.4,3-6.3,8-6.3c6.1,0,8.1,2.7,8.1,5.6
			c0,2.9-1.7,5.1-7.1,8.2v0.1h7.1V93h-15.9v-4.7l4-2.6C1263.8,83.2,1265,81.3,1265,80.1"/>
	</g>
</g>
<g>
	<g>
		<path class="st0" d="M1247.7,83.9c0,4.7-0.6,5.1-1.5,5.1s-1.5-0.5-1.5-5.1c0-4.7,0.6-5.1,1.5-5.1S1247.7,79.2,1247.7,83.9
			 M1254.4,83.9c0-5.8-2.6-9.5-8.2-9.5c-5.7,0-8.2,3.8-8.2,9.5s2.6,9.5,8.2,9.5C1251.8,93.5,1254.4,89.7,1254.4,83.9"/>
	</g>
</g>
<g>
	<g>
		<path class="st0" d="M1229.6,80.1c0-1.1-0.7-1.5-1.4-1.5c-0.9,0-1.5,0.5-1.5,2h-6.3c0-4.4,3-6.3,8-6.3c6.1,0,8.1,2.7,8.1,5.6
			c0,2.9-1.7,5.1-7.1,8.2v0.1h7.1V93h-15.9v-4.7l4-2.6C1228.4,83.2,1229.6,81.3,1229.6,80.1"/>
	</g>
</g>
<g>
	<g>
		<path class="st1" d="M1168.6,60.6c0,1.9-1,2.8-3.6,2.8h-1.5v-5.2h1.4C1167.4,58.2,1168.6,59,1168.6,60.6 M1168.1,50.6
			c0,1.5-0.8,2.6-3.2,2.6h-1.4v-5h1.4C1167,48.2,1168.1,48.8,1168.1,50.6 M1178,49.4c0-4.4-2.8-6.9-8.5-6.9h-15.8v26.5h14.8
			c6.6,0,10.2-3.1,10.2-7.6c0-2.8-1.6-5.7-5.7-6.2v-0.1C1176.9,54.2,1178,52,1178,49.4"/>
	</g>
</g>
<g>
	<g>
		<polygon class="st1" points="1203.4,49.6 1196.9,49.6 1196.9,69.1 1186.4,69.1 1186.4,49.6 1179.8,49.6 1179.8,42.5 1203.4,42.5 
					"/>
	</g>
</g>
<g>
	<g>
		<polygon class="st1" points="1230.8,69.1 1220.3,69.1 1220.3,59.3 1215.8,59.3 1215.8,69.1 1205.3,69.1 1205.3,42.5 1215.8,42.5 
			1215.8,51.5 1220.3,51.5 1220.3,42.5 1230.8,42.5 		"/>
	</g>
</g>
<g>
	<g>
		<polygon class="st1" points="1261,42.5 1253.6,69.1 1240,69.1 1232.6,42.5 1243.3,42.5 1246.8,63.2 1246.8,63.2 1250.3,42.5 		"/>
	</g>
</g>
<g>
	<g>
		<polygon class="st1" points="1289.6,69.1 1277,69.1 1271.4,52.9 1271.3,52.9 1271.3,69.1 1262.8,69.1 1262.8,42.5 1275.4,42.5 
			1281,58.6 1281.1,58.6 1281.1,42.5 1289.6,42.5 		"/>
	</g>
</g>
<g>
	<g>
		<path class="st0" d="M1283,83.9c0,4.7-0.6,5.1-1.5,5.1s-1.5-0.5-1.5-5.1c0-4.7,0.6-5.1,1.5-5.1S1283,79.2,1283,83.9 M1289.8,83.9
			c0-5.8-2.6-9.5-8.2-9.5s-8.2,3.8-8.2,9.5s2.6,9.5,8.2,9.5S1289.8,89.7,1289.8,83.9"/>
	</g>
</g>
</svg>
